<svg width="44" height="50" viewBox="0 0 44 50" fill="none" xmlns="http://www.w3.org/2000/svg">
<path d="M8.58301 39.6826H4.72754L3.9209 42H2.12305L5.88281 32.0469H7.43457L11.2012 42H9.39648L8.58301 39.6826ZM5.21289 38.2881H8.09766L6.65527 34.1592L5.21289 38.2881ZM14.5254 38.3018V42H12.7959V32.0469H16.6036C17.7155 32.0469 18.5974 32.3363 19.2491 32.915C19.9053 33.4938 20.2334 34.2594 20.2334 35.2119C20.2334 36.1872 19.9121 36.946 19.2696 37.4883C18.6315 38.0306 17.736 38.3018 16.583 38.3018H14.5254ZM14.5254 36.9141H16.6036C17.2188 36.9141 17.6882 36.7705 18.0118 36.4834C18.3353 36.1917 18.4971 35.7725 18.4971 35.2256C18.4971 34.6878 18.333 34.2594 18.0049 33.9404C17.6768 33.6169 17.2256 33.4505 16.6514 33.4414H14.5254V36.9141ZM25.8682 38.165H23.9405V42H22.211V32.0469H25.711C26.8595 32.0469 27.7458 32.3044 28.3702 32.8193C28.9945 33.3343 29.3067 34.0794 29.3067 35.0547C29.3067 35.7201 29.1449 36.2783 28.8214 36.7295C28.5024 37.1761 28.0557 37.5202 27.4815 37.7617L29.7169 41.9111V42H27.8643L25.8682 38.165ZM23.9405 36.7773H25.7179C26.3012 36.7773 26.7569 36.6315 27.085 36.3398C27.4132 36.0436 27.5772 35.6403 27.5772 35.1299C27.5772 34.5967 27.4246 34.1842 27.1192 33.8926C26.8184 33.6009 26.3673 33.4505 25.7657 33.4414H23.9405V36.7773ZM33.2325 42H31.5099V32.0469H33.2325V42ZM37.548 40.6191H42.0666V42H35.8185V32.0469H37.548V40.6191Z" fill="black" fill-opacity="0.38"/>
<path d="M31.125 26H13.916V23.0645L22.4414 13.7656C23.6719 12.3945 24.5449 11.252 25.0605 10.3379C25.5879 9.41211 25.8516 8.48633 25.8516 7.56055C25.8516 6.3418 25.5059 5.35742 24.8145 4.60742C24.1348 3.85742 23.2148 3.48242 22.0547 3.48242C20.6719 3.48242 19.5996 3.9043 18.8379 4.74805C18.0762 5.5918 17.6953 6.74609 17.6953 8.21094H13.4238C13.4238 6.65234 13.7754 5.25195 14.4785 4.00977C15.1934 2.75586 16.207 1.7832 17.5195 1.0918C18.8438 0.400391 20.3672 0.0546875 22.0898 0.0546875C24.5742 0.0546875 26.5312 0.681641 27.9609 1.93555C29.4023 3.17773 30.123 4.90039 30.123 7.10352C30.123 8.38086 29.7598 9.72266 29.0332 11.1289C28.3184 12.5234 27.1406 14.1113 25.5 15.8926L19.2422 22.5898H31.125V26Z" fill="black" fill-opacity="0.38"/>
</svg>
