<svg width="46" height="45" viewBox="0 0 46 45" fill="none" xmlns="http://www.w3.org/2000/svg">
<path d="M12.8249 0H7.74381V39.9189H5.58109V0H0.5V45H12.8249V7.24377V5.08107V0Z" fill="#F43D53"/>
<path d="M40.4189 13.4192C40.4189 18.0313 36.6667 21.7574 32.0807 21.7574H22.2573V24.2849C22.2573 31.685 28.2764 37.7041 35.6766 37.7041H40.3929H45.474V32.623H35.6766C31.9504 32.623 28.7976 30.1737 27.7292 26.8124H32.0547C39.4548 26.8124 45.474 20.7933 45.474 13.3932C45.474 5.99305 39.4548 0 32.0547 0H15.0135V5.08107H32.0547C36.6667 5.08107 40.4189 8.83324 40.4189 13.4192Z" fill="#F2AE25"/>
<path d="M40.4189 39.9189H35.7026C27.1038 39.9189 20.0945 32.9097 20.0945 24.3109V12.3248H32.0546C32.6539 12.3248 33.149 12.8199 33.149 13.4192C33.149 14.0185 32.6539 14.5136 32.0546 14.5136H22.2572V19.5947H32.0546C35.4681 19.5947 38.2301 16.8327 38.2301 13.4192C38.2301 10.0058 35.4681 7.24377 32.0546 7.24377H15.0134V24.2849C15.0134 35.6977 24.2897 44.9739 35.7026 44.9739H45.5V39.8929H40.4189V39.9189Z" fill="#33CCAE"/>
</svg>
